<svg xmlns="http://www.w3.org/2000/svg" viewBox="-276.30999755859375 102.49199999999999 1061.8699951171875 370"> <svg version="1.1" id="Layer_1" xmlns="http://www.w3.org/2000/svg" xmlns:xlink="http://www.w3.org/1999/xlink" x="198.708" y="172.492" viewBox="1828.94677734375 36.70390701293945 3747.92822265625 4854.69580078125" xml:space="preserve" height="230" width="177.56666564941406" preserveAspectRatio="xMinYMin" enable-background="new 0 0 7500 5000" style="overflow: visible;"><path d="M4792.8,513.6c-71.5,89.6-142.6,179.5-213,269.9c-95.4,122.3-188.8,246.2-281.8,370.3c32.9-7,65.8-14.1,98.7-21.2  c68-14.6,135.9-29.1,203.8-43.8c-54.6-140.2,134.8-450.2,199.8-584.5C4797.8,507.4,4795.3,510.5,4792.8,513.6z M1861.9,4857.3  c-139.2-127.3,202.8-649.2,280.2-790.5c103.2-172.2,209.1-343,314.9-513.8c481.1-779,987.8-1542.6,1532-2279.1  c-402.3,98.8-803.5,204.2-1194.9,340c-238.2,85.8-481,171.9-698.1,303.4c1.9,25.3-26.7,41.3-49.5,34.7  c-43.8,5.1-95.3-37.3-87.1-83.3c14.4-70.8,215-132.4,281.3-163.1c580.2-224.3,1188.5-364.1,1795.2-495.4  c161.4-218.5,327.1-433.9,496.2-646.4c145.1-173.8,282.1-358.7,453.4-507.9c48.1-47.1,155.7-1.2,134.3,69.2  c-20.6,35.7-48.5,66.8-70.9,101.4c-133.5,216.8-358.7,576.6-366.5,826.9c286.5-33.9,562.2-133.7,844.9-184.4c0,0.1,0.1,0.2,0.1,0.3  c37.1,0.2,72.6,57,30.2,77.8c-95.5,32.1-194.9,51.9-292.7,75.7c-101.5,23.6-203,47.6-304.3,72.2c-48.8,11.9-97.7,23.6-146.7,34.3  c-59.2,10.9-128.4,33.1-182-5.5c-113.9,25.7-227.7,51.8-341.5,78.3c-11.5,2.7-23,5.4-34.5,8.1c-524,701.2-1014.3,1427.2-1481,2167.7  c-162.3,255.5-323,511.9-483.3,768.6c-125,212-272.2,418-345.9,654.7c183.6-66.1,333.6-201.1,494.3-308.1  c244.6-176.7,486.6-357,728.4-537.5c542.6-404.1,1077.3-818.5,1615.8-1227.6c48.8-37.2,97.6-74.5,146.4-111.7  c3.8-2.9,10.8,3.9,6.5,7.2c-569.3,435.9-1142.8,868.2-1708.2,1307.8c-212.7,165.6-424,331.8-635.3,499.1  c-123.9,98.4-246.9,196.3-371.2,293.9c-66.3,48.8-130.4,102.3-203.7,140.4c-24.3,16.7-52.5,26.7-80,26.7  C1910.7,4891.5,1883.5,4881.2,1861.9,4857.3z" style=""></path></svg> <svg y="269.4400039672852" viewBox="0.5099999904632568 20.6200008392334 921.8699951171875 36.089996337890625" x="-206.30999755859375" height="36.089996337890625" width="921.8699951171875" style="overflow: visible;"><g fill="#ffffff" style=""><path d="M28.61 25.25L27.90 21.38L0.51 21.38L0.51 25.25L11.76 25.25L11.76 56.00L16.70 56.00L16.70 25.25L28.61 25.25ZM64.65 56.00L69.54 56.00L69.54 21.38L64.65 21.38L64.65 36.65L49.28 36.65L49.28 21.13L44.39 21.38L44.39 56.00L49.28 56.00L49.28 40.57L64.65 40.57L64.65 56.00ZM89.39 56.00L111.38 56.00L110.72 52.18L94.28 52.18L94.28 40.27L106.70 40.27L106.04 36.50L94.28 36.50L94.28 25.15L109.55 25.15L108.89 21.38L89.39 21.38L89.39 56.00ZM166.82 40.47L166.21 36.75L154.96 36.75L154.96 25.15L169.47 25.15L168.76 21.38L150.07 21.38L150.07 56.00L154.96 56.00L154.96 40.47L166.82 40.47ZM190.65 25.50L195.63 25.50Q198.08 25.50 199.89 26.09Q201.69 26.68 202.69 28.05Q203.68 29.42 203.68 31.87L203.68 31.87Q203.68 34.21 202.53 35.58Q201.39 36.96 199.53 37.57Q197.67 38.18 195.38 38.18L195.38 38.18L190.65 38.18L190.65 25.50ZM195.69 21.38L185.76 21.38L185.76 56.00L190.65 56.00L190.65 42.15L195.18 42.15Q195.89 42.15 196.93 42.10Q197.98 42.05 198.38 42.00L198.38 42.00L206.12 56.00L211.42 56.00L202.71 40.73Q205.36 39.61 207.04 37.34Q208.72 35.07 208.77 31.66L208.77 31.66Q208.77 28.00 207.04 25.73Q205.31 23.47 202.33 22.42Q199.35 21.38 195.69 21.38L195.69 21.38ZM227.20 56.00L249.19 56.00L248.53 52.18L232.08 52.18L232.08 40.27L244.51 40.27L243.84 36.50L232.08 36.50L232.08 25.15L247.36 25.15L246.69 21.38L227.20 21.38L227.20 56.00ZM265.48 56.00L287.47 56.00L286.81 52.18L270.37 52.18L270.37 40.27L282.79 40.27L282.13 36.50L270.37 36.50L270.37 25.15L285.64 25.15L284.98 21.38L265.48 21.38L265.48 56.00ZM324.89 56.00L324.28 52.18L308.65 52.18L308.65 21.38L303.76 21.38L303.76 56.00L324.89 56.00ZM351.77 27.95L357.47 42.81L346.22 42.81L351.77 27.95ZM354.06 21.38L349.63 21.38L336.60 56.00L341.38 56.00L344.84 46.73L358.94 46.73L362.56 56.40L367.39 55.69L354.06 21.38ZM383.18 56.00L388.06 56.00L388.06 30.19L390.00 33.24L406.03 56.00L410.41 56.00L410.41 21.38L405.47 21.38L405.47 46.99L403.03 43.17L387.50 21.38L383.18 21.38L383.18 56.00ZM451.44 26.27L452.97 22.76Q451.70 21.99 450.04 21.53Q448.39 21.08 446.78 20.87Q445.18 20.67 444.16 20.67L444.16 20.67Q440.34 20.67 437.31 22.04Q434.29 23.42 432.15 25.89Q430.01 28.36 428.86 31.66Q427.72 34.97 427.72 38.89L427.72 38.89Q427.72 42.56 428.74 45.77Q429.75 48.97 431.79 51.44Q433.83 53.91 436.86 55.31Q439.89 56.71 443.86 56.71L443.86 56.71Q445.33 56.71 447.04 56.46Q448.74 56.20 450.37 55.74Q452.00 55.28 453.12 54.67L453.12 54.67L451.24 51.01Q449.81 51.67 447.98 52.10Q446.15 52.54 443.65 52.54L443.65 52.54Q441.06 52.54 439.05 51.47Q437.03 50.40 435.63 48.49Q434.23 46.58 433.52 44.11Q432.81 41.64 432.81 38.84L432.81 38.84Q432.81 34.67 434.31 31.51Q435.81 28.36 438.36 26.60Q440.90 24.84 444.06 24.84L444.06 24.84Q445.74 24.84 446.91 25.02Q448.08 25.20 449.15 25.50Q450.22 25.81 451.44 26.27L451.44 26.27ZM469.41 56.00L491.40 56.00L490.74 52.18L474.30 52.18L474.30 40.27L486.72 40.27L486.06 36.50L474.30 36.50L474.30 25.15L489.57 25.15L488.91 21.38L469.41 21.38L469.41 56.00ZM512.58 25.50L517.57 25.50Q520.01 25.50 521.82 26.09Q523.63 26.68 524.62 28.05Q525.61 29.42 525.61 31.87L525.61 31.87Q525.61 34.21 524.47 35.58Q523.32 36.96 521.46 37.57Q519.61 38.18 517.31 38.18L517.31 38.18L512.58 38.18L512.58 25.50ZM517.62 21.38L507.69 21.38L507.69 56.00L512.58 56.00L512.58 42.15L517.11 42.15Q517.82 42.15 518.87 42.10Q519.91 42.05 520.32 42.00L520.32 42.00L528.06 56.00L533.35 56.00L524.64 40.73Q527.29 39.61 528.97 37.34Q530.65 35.07 530.70 31.66L530.70 31.66Q530.70 28.00 528.97 25.73Q527.24 23.47 524.26 22.42Q521.29 21.38 517.62 21.38L517.62 21.38ZM585.99 44.90L587.77 44.65L596.37 31.97L596.37 56.00L601.31 56.00L601.31 21.38L598.26 21.38L586.70 38.49L574.53 21.38L571.53 21.38L571.53 56.00L576.42 56.00L576.42 31.51L585.99 44.90ZM632.26 27.95L637.96 42.81L626.71 42.81L632.26 27.95ZM634.55 21.38L630.12 21.38L617.09 56.00L621.88 56.00L625.34 46.73L639.44 46.73L643.05 56.40L647.89 55.69L634.55 21.38ZM668.56 25.50L673.55 25.50Q675.99 25.50 677.80 26.09Q679.61 26.68 680.60 28.05Q681.59 29.42 681.59 31.87L681.59 31.87Q681.59 34.21 680.45 35.58Q679.30 36.96 677.44 37.57Q675.58 38.18 673.29 38.18L673.29 38.18L668.56 38.18L668.56 25.50ZM673.60 21.38L663.67 21.38L663.67 56.00L668.56 56.00L668.56 42.15L673.09 42.15Q673.80 42.15 674.85 42.10Q675.89 42.05 676.30 42.00L676.30 42.00L684.03 56.00L689.33 56.00L680.62 40.73Q683.27 39.61 684.95 37.34Q686.63 35.07 686.68 31.66L686.68 31.66Q686.68 28.00 684.95 25.73Q683.22 23.47 680.24 22.42Q677.26 21.38 673.60 21.38L673.60 21.38ZM731.84 56.00L725.88 56.00L713.71 40.06L710.00 44.03L710.00 56.00L705.11 56.00L705.11 21.38L710.00 21.38L710.00 37.42L725.78 20.62L729.24 23.47L716.97 36.55L731.84 56.00ZM747.62 56.00L769.61 56.00L768.95 52.18L752.50 52.18L752.50 40.27L764.92 40.27L764.26 36.50L752.50 36.50L752.50 25.15L767.78 25.15L767.11 21.38L747.62 21.38L747.62 56.00ZM809.93 25.25L809.21 21.38L781.83 21.38L781.83 25.25L793.08 25.25L793.08 56.00L798.01 56.00L798.01 25.25L809.93 25.25ZM825.71 56.00L830.59 56.00L830.59 21.38L825.71 21.38L825.71 56.00ZM850.45 56.00L855.34 56.00L855.34 30.19L857.27 33.24L873.31 56.00L877.68 56.00L877.68 21.38L872.75 21.38L872.75 46.99L870.30 43.17L854.78 21.38L850.45 21.38L850.45 56.00ZM910.72 37.82L910.31 41.54L917.85 41.54L917.85 51.67Q916.73 52.03 915.33 52.28Q913.93 52.54 912.20 52.54L912.20 52.54Q908.74 52.54 905.99 50.86Q903.24 49.18 901.66 46.10Q900.08 43.02 900.08 38.84L900.08 38.84Q900.08 35.43 901.13 32.81Q902.17 30.19 904.00 28.43Q905.83 26.68 908.15 25.76Q910.47 24.84 912.96 24.84L912.96 24.84Q914.64 24.84 915.81 25.02Q916.98 25.20 918.03 25.50Q919.07 25.81 920.29 26.27L920.29 26.27L921.82 22.76Q920.60 21.99 918.89 21.53Q917.19 21.08 915.56 20.87Q913.93 20.67 912.86 20.67L912.86 20.67Q909.04 20.67 905.78 21.99Q902.53 23.32 900.11 25.76Q897.69 28.20 896.34 31.54Q894.99 34.87 894.99 38.89L894.99 38.89Q894.99 43.93 897.10 47.95Q899.22 51.98 903.11 54.34Q907.01 56.71 912.30 56.71L912.30 56.71Q914.18 56.71 916.04 56.38Q917.90 56.05 919.53 55.49Q921.16 54.93 922.33 54.27L922.33 54.27L922.38 37.82L910.72 37.82Z" transform="translate(0, 0)"></path></g></svg></svg>